<?xml version="1.0" encoding="UTF-8"?>
<svg width="324px" height="337px" viewBox="0 0 324 337" version="1.1" xmlns="http://www.w3.org/2000/svg" xmlns:xlink="http://www.w3.org/1999/xlink">
    <!-- Generator: Sketch 54.1 (76490) - https://sketchapp.com -->
    <title>White Logo</title>
    <desc>Created with Sketch.</desc>
    <defs>
        <path d="M74.838,66.9186927 C75.8833386,66.7553585 76.5938315,66.4531949 76.9695,66.0121927 C77.3451685,65.5711905 77.533,64.7953649 77.533,63.6846927 L77.582,48.1516927 C77.582,47.3350219 77.484001,46.7878607 77.288,46.5101927 C77.091999,46.2325246 76.7000029,46.0936927 76.112,46.0936927 L74.789,46.1426927 L74.642,45.9466927 L74.936,44.0846927 C75.0993342,44.0846927 75.5893293,44.1010258 76.406,44.1336927 C77.2226708,44.1663595 78.3169931,44.1826927 79.689,44.1826927 C80.4076703,44.1826927 81.297828,44.1336932 82.3595,44.0356927 C83.421172,43.9376922 84.1153317,43.8723595 84.442,43.8396927 L84.246,45.8976927 C83.3639956,45.9956932 82.7433351,46.1508583 82.384,46.3631927 C82.0246649,46.5755271 81.8123337,46.8450244 81.747,47.1716927 C81.6816663,47.498361 81.6000005,48.1680209 81.502,49.1806927 C81.1753317,53.5580479 81.012,58.4089994 81.012,63.7336927 C81.012,64.5503634 81.0854993,65.1465241 81.2325,65.5221927 C81.3795007,65.8978612 81.6734978,66.1510254 82.1145,66.2816927 C82.5555022,66.41236 83.2496619,66.4776927 84.197,66.4776927 C85.7650078,66.4776927 86.9164963,66.3470273 87.6515,66.0856927 C88.3865037,65.824358 88.9418315,65.3098632 89.3175,64.5421927 C89.6931685,63.7745222 90.0279985,62.557701 90.322,60.8916927 L92.478,60.6466927 L92.625,60.9406927 C92.5596663,61.3653615 92.4045012,62.3371851 92.1595,63.8561927 C91.9144988,65.3752003 91.694001,66.9676843 91.498,68.6336927 L91.253,68.9276927 C90.5016629,68.8950258 88.9091788,68.8296932 86.4755,68.7316927 C84.0418212,68.6336922 81.9920083,68.5846927 80.326,68.5846927 C79.0193268,68.5846927 77.8025056,68.6418588 76.6755,68.7561927 C75.5484944,68.8705266 74.8380015,68.9440258 74.544,68.9766927 L74.838,66.9186927 Z M96.104,66.9186927 C97.3126727,66.7880254 98.1293312,66.4940283 98.554,66.0366927 C98.9786688,65.5793571 99.191,64.7953649 99.191,63.6846927 L99.24,48.1516927 C99.24,47.3350219 99.142001,46.7878607 98.946,46.5101927 C98.749999,46.2325246 98.3580029,46.0936927 97.77,46.0936927 L96.447,46.1426927 L96.349,45.9466927 L96.643,44.0846927 C97.035002,44.0846927 97.802661,44.1010258 98.946,44.1336927 C100.089339,44.1663595 101.33066,44.1826927 102.67,44.1826927 C108.125361,44.1826927 112.159654,44.0356941 114.773,43.7416927 L114.92,43.9866927 C114.854666,44.3460278 114.707668,45.1626863 114.479,46.4366927 C114.250332,47.710699 114.087,49.0826853 113.989,50.5526927 L111.637,50.7486927 C111.637,50.6180254 111.653333,50.3975276 111.686,50.0871927 C111.718667,49.7768578 111.735,49.458361 111.735,49.1316927 C111.735,48.2823551 111.612501,47.6861944 111.3675,47.3431927 C111.122499,47.000191 110.616171,46.7715266 109.8485,46.6571927 C109.080829,46.5428588 107.749676,46.4856927 105.855,46.4856927 C104.972996,46.4856927 104.368668,46.5101924 104.042,46.5591927 C103.715332,46.6081929 103.503,46.7225251 103.405,46.9021927 C103.307,47.0818602 103.241667,47.4166902 103.209,47.9066927 L102.915,54.8646927 L106.933,54.9136927 C107.521003,54.9136927 108.386661,54.8565266 109.53,54.7421927 C110.673339,54.6278588 111.424665,54.5543595 111.784,54.5216927 L111.98,54.7666927 L111.392,57.3146927 C111.032665,57.3146927 110.322172,57.2983595 109.2605,57.2656927 C108.198828,57.2330258 107.080006,57.2166927 105.904,57.2166927 C104.989329,57.2166927 103.960339,57.2983585 102.817,57.4616927 C102.719,59.9443718 102.67,62.182016 102.67,64.1746927 C102.67,64.9260298 102.727166,65.4486912 102.8415,65.7426927 C102.955834,66.0366941 103.217165,66.2326922 103.6255,66.3306927 C104.033835,66.4286932 104.711662,66.4776927 105.659,66.4776927 C107.782344,66.4776927 109.301329,66.3796937 110.216,66.1836927 C111.130671,65.9876917 111.775831,65.587529 112.1515,64.9831927 C112.527169,64.3788563 112.829332,63.3417 113.058,61.8716927 L115.214,61.6756927 L115.41,61.9206927 C115.312,62.2800278 115.140501,63.1211861 114.8955,64.4441927 C114.650499,65.7671993 114.462667,67.1473522 114.332,68.5846927 L114.038,68.8296927 C113.155996,68.7970258 111.326681,68.7480263 108.55,68.6826927 C105.773319,68.617359 103.519342,68.5846927 101.788,68.5846927 C100.44866,68.5846927 99.2073391,68.6418588 98.064,68.7561927 L95.859,68.9766927 L96.104,66.9186927 Z M131.874,68.6826927 L132.021,66.9186927 C133.393007,66.8206922 134.315831,66.6736937 134.7895,66.4776927 C135.263169,66.2816917 135.5,65.9550283 135.5,65.4976927 C135.5,64.9750234 135.385668,64.4196956 135.157,63.8316927 L133.981,60.0586927 C133.327663,60.0260258 131.97201,60.0096927 129.914,60.0096927 C128.966662,60.0096927 127.562009,60.1076917 125.7,60.3036927 L124.328,63.9296927 C124.099332,64.6810298 123.985,65.1383585 123.985,65.3016927 C123.985,65.824362 124.164665,66.2000249 124.524,66.4286927 C124.883335,66.6573605 125.471329,66.7716927 126.288,66.7716927 L128.395,66.7716927 L128.542,66.9676927 L128.248,68.8296927 C127.921332,68.7970258 127.178172,68.7480263 126.0185,68.6826927 C124.858828,68.617359 123.723672,68.5846927 122.613,68.5846927 C121.567661,68.5846927 120.628504,68.6010258 119.7955,68.6336927 C118.962496,68.6663595 118.399001,68.6826927 118.105,68.6826927 L118.399,66.6736927 C119.11767,66.5756922 119.689331,66.322528 120.114,65.9141927 C120.538669,65.5058573 120.963331,64.8116976 121.388,63.8316927 L129.081,44.3786927 L132.56,43.7416927 L132.903,43.7906927 C132.903,43.92136 133.646159,46.5020009 135.1325,51.5326927 C136.618841,56.5633845 137.949994,60.7283428 139.126,64.0276927 C139.452668,64.9750307 139.869164,65.6365241 140.3755,66.0121927 C140.881836,66.3878612 141.690328,66.6246922 142.801,66.7226927 L142.899,66.9186927 L142.654,68.6826927 C142.327332,68.6826927 141.723004,68.6663595 140.841,68.6336927 C139.958996,68.6010258 139.077004,68.5846927 138.195,68.5846927 C136.85566,68.5846927 135.581673,68.6336922 134.373,68.7316927 C133.164327,68.8296932 132.380335,68.8950258 132.021,68.9276927 L131.874,68.6826927 Z M129.816,58.0006927 C130.959339,58.0006927 132.15166,57.93536 133.393,57.8046927 L130.404,48.2986927 L130.061,48.2986927 L126.484,58.0006927 L129.816,58.0006927 Z M148.828,66.8206927 C150.134673,66.7226922 151.057497,66.5593605 151.5965,66.3306927 C152.135503,66.1020249 152.478499,65.7181954 152.6255,65.1791927 C152.772501,64.64019 152.846,63.7010327 152.846,62.3616927 L152.846,46.1426927 C150.78799,46.2080263 149.39967,46.3223585 148.681,46.4856927 C147.96233,46.6490268 147.431502,47.0328563 147.0885,47.6371927 C146.745498,48.241529 146.459668,49.3766843 146.231,51.0426927 L143.928,51.1896927 C143.993334,50.7650239 144.099499,49.8258666 144.2465,48.3721927 C144.393501,46.9185187 144.483333,45.4893664 144.516,44.0846927 L144.908,43.7416927 L148.387,44.1336927 L160.882,44.1336927 L164.459,43.7416927 L164.851,44.0846927 C164.883667,45.5220332 164.965333,46.943019 165.096,48.3476927 C165.226667,49.7523664 165.324666,50.6506907 165.39,51.0426927 L163.136,51.1896927 C162.874665,49.4910175 162.572502,48.3231959 162.2295,47.6861927 C161.886498,47.0491895 161.38017,46.6490268 160.7105,46.4856927 C160.04083,46.3223585 158.758676,46.2080263 156.864,46.1426927 C156.700666,47.7107005 156.553667,50.3158411 156.423,53.9581927 C156.292333,57.6005442 156.227,60.9570107 156.227,64.0276927 C156.227,64.9750307 156.406665,65.6446907 156.766,66.0366927 C157.125335,66.4286946 157.713329,66.6246927 158.53,66.6246927 C159.118003,66.6246927 159.599831,66.6083595 159.9755,66.5756927 C160.351169,66.5430258 160.588,66.5266927 160.686,66.5266927 L160.833,66.6736927 L160.49,68.7316927 C160.032664,68.7316927 159.18334,68.7071929 157.942,68.6581927 C156.70066,68.6091924 155.492006,68.5846927 154.316,68.5846927 C153.139994,68.5846927 151.980339,68.6091924 150.837,68.6581927 C149.693661,68.7071929 148.909669,68.7480258 148.485,68.7806927 L148.828,66.8206927 Z M169.212,67.0166927 C170.420673,66.7880249 171.237331,66.4531949 171.662,66.0121927 C172.086669,65.5711905 172.299,64.8116981 172.299,63.7336927 L172.348,48.1516927 C172.348,47.3350219 172.250001,46.7878607 172.054,46.5101927 C171.857999,46.2325246 171.466003,46.0936927 170.878,46.0936927 L169.555,46.1426927 L169.408,45.9466927 L169.702,44.0846927 C170.028668,44.0846927 170.641162,44.1010258 171.5395,44.1336927 C172.437838,44.1663595 173.344329,44.1826927 174.259,44.1826927 C175.010337,44.1826927 175.908661,44.1336932 176.954,44.0356927 C177.999339,43.9376922 178.685332,43.8723595 179.012,43.8396927 L178.816,45.8486927 C178.031996,45.97936 177.476668,46.1345251 177.15,46.3141927 C176.823332,46.4938602 176.602834,46.7715241 176.4885,47.1471927 C176.374166,47.5228612 176.284334,48.1680214 176.219,49.0826927 L175.974,55.0116927 L182.344,55.0606927 C184.075342,55.0606927 185.953657,54.9463605 187.979,54.7176927 L188.028,48.1516927 C188.028,47.3350219 187.930001,46.7878607 187.734,46.5101927 C187.537999,46.2325246 187.146003,46.0936927 186.558,46.0936927 L185.186,46.1426927 L185.088,45.9466927 L185.382,44.0846927 C185.676001,44.1173595 186.247662,44.1418593 187.097,44.1581927 C187.946338,44.1745261 188.779329,44.1826927 189.596,44.1826927 C190.380004,44.1826927 191.335494,44.1336932 192.4625,44.0356927 C193.589506,43.9376922 194.332665,43.8723595 194.692,43.8396927 L194.545,45.8486927 C193.532328,45.97936 192.862668,46.1835246 192.536,46.4611927 C192.209332,46.7388607 192.029667,47.2533556 191.997,48.0046927 C191.866333,50.5853722 191.743834,53.4681767 191.6295,56.6531927 C191.515166,59.8382086 191.458,62.2963507 191.458,64.0276927 C191.458,65.0730312 191.572332,65.767191 191.801,66.1101927 C192.029668,66.4531944 192.486997,66.6246927 193.173,66.6246927 C193.565002,66.6246927 193.924332,66.6083595 194.251,66.5756927 C194.577668,66.5430258 194.79,66.5266927 194.888,66.5266927 L195.035,66.7226927 L194.643,68.6826927 C194.283665,68.6826927 193.605838,68.6663595 192.6095,68.6336927 C191.613162,68.6010258 190.576005,68.5846927 189.498,68.5846927 L184.598,68.6336927 L184.99,66.6736927 C185.839338,66.6736927 186.468165,66.5675271 186.8765,66.3551927 C187.284835,66.1428583 187.570666,65.7671954 187.734,65.2281927 C187.897334,64.68919 187.979,63.8806981 187.979,62.8026927 L187.979,57.3146927 L182.344,57.2656927 C181.821331,57.2656927 180.759675,57.3228588 179.159,57.4371927 C177.558325,57.5515266 176.480336,57.6250258 175.925,57.6576927 L175.778,64.0276927 C175.778,65.0730312 175.892332,65.7753575 176.121,66.1346927 C176.349668,66.4940278 176.806997,66.6736927 177.493,66.6736927 C177.885002,66.6736927 178.244332,66.6573595 178.571,66.6246927 C178.897668,66.5920258 179.11,66.5593595 179.208,66.5266927 L179.306,66.7226927 L178.963,68.6826927 C178.701665,68.6826927 178.203504,68.6663595 177.4685,68.6336927 C176.733496,68.6010258 175.957671,68.5846927 175.141,68.5846927 C173.932327,68.5846927 172.609341,68.6336922 171.172,68.7316927 C169.734659,68.8296932 168.999667,68.9276922 168.967,69.0256927 L169.212,67.0166927 Z M200.523,66.9186927 C201.731673,66.7880254 202.548331,66.4940283 202.973,66.0366927 C203.397669,65.5793571 203.61,64.7953649 203.61,63.6846927 L203.659,48.1516927 C203.659,47.3350219 203.561001,46.7878607 203.365,46.5101927 C203.168999,46.2325246 202.777003,46.0936927 202.189,46.0936927 L200.866,46.1426927 L200.768,45.9466927 L201.062,44.0846927 C201.454002,44.0846927 202.221661,44.1010258 203.365,44.1336927 C204.508339,44.1663595 205.74966,44.1826927 207.089,44.1826927 C212.544361,44.1826927 216.578654,44.0356941 219.192,43.7416927 L219.339,43.9866927 C219.273666,44.3460278 219.126668,45.1626863 218.898,46.4366927 C218.669332,47.710699 218.506,49.0826853 218.408,50.5526927 L216.056,50.7486927 C216.056,50.6180254 216.072333,50.3975276 216.105,50.0871927 C216.137667,49.7768578 216.154,49.458361 216.154,49.1316927 C216.154,48.2823551 216.031501,47.6861944 215.7865,47.3431927 C215.541499,47.000191 215.035171,46.7715266 214.2675,46.6571927 C213.499829,46.5428588 212.168676,46.4856927 210.274,46.4856927 C209.391996,46.4856927 208.787668,46.5101924 208.461,46.5591927 C208.134332,46.6081929 207.922,46.7225251 207.824,46.9021927 C207.726,47.0818602 207.660667,47.4166902 207.628,47.9066927 L207.334,54.8646927 L211.352,54.9136927 C211.940003,54.9136927 212.805661,54.8565266 213.949,54.7421927 C215.092339,54.6278588 215.843665,54.5543595 216.203,54.5216927 L216.399,54.7666927 L215.811,57.3146927 C215.451665,57.3146927 214.741172,57.2983595 213.6795,57.2656927 C212.617828,57.2330258 211.499006,57.2166927 210.323,57.2166927 C209.408329,57.2166927 208.379339,57.2983585 207.236,57.4616927 C207.138,59.9443718 207.089,62.182016 207.089,64.1746927 C207.089,64.9260298 207.146166,65.4486912 207.2605,65.7426927 C207.374834,66.0366941 207.636165,66.2326922 208.0445,66.3306927 C208.452835,66.4286932 209.130662,66.4776927 210.078,66.4776927 C212.201344,66.4776927 213.720329,66.3796937 214.635,66.1836927 C215.549671,65.9876917 216.194831,65.587529 216.5705,64.9831927 C216.946169,64.3788563 217.248332,63.3417 217.477,61.8716927 L219.633,61.6756927 L219.829,61.9206927 C219.731,62.2800278 219.559501,63.1211861 219.3145,64.4441927 C219.069499,65.7671993 218.881667,67.1473522 218.751,68.5846927 L218.457,68.8296927 C217.574996,68.7970258 215.745681,68.7480263 212.969,68.6826927 C210.192319,68.617359 207.938342,68.5846927 206.207,68.5846927 C204.86766,68.5846927 203.626339,68.6418588 202.483,68.7561927 L200.278,68.9766927 L200.523,66.9186927 Z M243.643,69.1726927 C242.92433,69.1726927 242.189337,68.8541959 241.438,68.2171927 C240.686663,67.5801895 240.00067,66.7063649 239.38,65.5956927 L235.264,58.3926927 L232.079,58.3926927 L231.981,63.6356927 C231.981,64.5830307 232.046333,65.2608573 232.177,65.6691927 C232.307667,66.077528 232.560831,66.3470254 232.9365,66.4776927 C233.312169,66.60836 233.957329,66.6900258 234.872,66.7226927 L234.97,66.8696927 L234.578,68.7316927 C234.185998,68.6990258 233.475505,68.6745261 232.4465,68.6581927 C231.417495,68.6418593 230.380339,68.6336927 229.335,68.6336927 C228.322328,68.6336927 227.440337,68.6500258 226.689,68.6826927 C225.937663,68.7153595 225.431335,68.7480258 225.17,68.7806927 L225.513,66.7716927 C226.721673,66.6083585 227.521998,66.3306946 227.914,65.9386927 C228.306002,65.5466907 228.502,64.8116981 228.502,63.7336927 L228.551,48.1026927 C228.551,47.3186888 228.453001,46.7878607 228.257,46.5101927 C228.060999,46.2325246 227.685336,46.0936927 227.13,46.0936927 L225.758,46.1426927 L225.611,45.9466927 L225.905,44.0846927 C226.231668,44.0846927 226.852329,44.1010258 227.767,44.1336927 C228.681671,44.1663595 229.596329,44.1826927 230.511,44.1826927 C231.458338,44.1826927 232.470995,44.1581929 233.549,44.1091927 C234.627005,44.0601924 235.361998,44.0356927 235.754,44.0356927 C238.400013,44.0356927 240.474326,44.5828539 241.977,45.6771927 C243.479674,46.7715315 244.231,48.2823497 244.231,50.2096927 C244.231,51.7123669 243.724672,53.1006863 242.712,54.3746927 C241.699328,55.648699 240.278342,56.6940219 238.449,57.5106927 L242.614,63.7826927 C243.398004,64.9586986 244.14933,65.7916902 244.868,66.2816927 C245.58667,66.7716951 246.452328,67.0166927 247.465,67.0166927 L247.661,67.2616927 L247.416,68.7806927 L243.643,69.1726927 Z M236.146,56.2366927 C236.76667,55.975358 237.313831,55.7221939 237.7875,55.4771927 C238.261169,55.2321914 238.791997,54.7176966 239.38,53.9336927 C239.968003,53.1496888 240.262,52.1370322 240.262,50.8956927 C240.262,47.7270102 237.926357,46.1426927 233.255,46.1426927 C232.993665,46.1426927 232.814,46.1998588 232.716,46.3141927 C232.618,46.4285266 232.569,46.6653575 232.569,47.0246927 C232.307665,51.0100459 232.177,53.9500165 232.177,55.8446927 L236.146,56.2366927 Z" id="path-1"></path>
        <path d="M96.5408246,23.385 C96.2608232,23.385 96.1208246,23.6649972 96.1208246,24.225 C96.1208246,24.7850028 96.3483224,25.4441629 96.8033246,26.2025 C97.2583269,26.9608371 97.8358211,27.5616645 98.5358246,28.005 C98.5591581,27.8883327 98.5708246,27.7133345 98.5708246,27.48 C98.5708246,26.4533282 98.3724933,25.5141709 97.9758246,24.6625 C97.579156,23.8108291 97.1008274,23.385 96.5408246,23.385 Z M89.9958246,11.275 C89.9958246,15.94169 90.5324859,19.908317 91.6058246,23.175 C92.6558299,20.3049856 93.1808246,16.4666907 93.1808246,11.66 C93.1808246,9.58332295 93.0524926,7.8683401 92.7958246,6.515 C92.5391567,5.1616599 92.1891602,4.485 91.7458246,4.485 C91.1624884,4.485 90.7249928,5.10916042 90.4333246,6.3575 C90.1416565,7.60583957 89.9958246,9.24498985 89.9958246,11.275 Z M95.5608246,7.95 C95.5608246,10.2366781 95.1699952,12.9666508 94.3883246,16.14 C93.6066541,19.3133492 92.7608292,21.8916567 91.8508246,23.875 C92.5741616,25.9283436 93.4024866,27.5091611 94.3358246,28.6175 C95.2691626,29.7258389 96.1208208,30.28 96.8908246,30.28 C97.6608285,30.28 98.1741567,29.8016715 98.4308246,28.845 C97.3808194,28.378331 96.4883283,27.6316718 95.7533246,26.605 C95.018321,25.5783282 94.6508246,24.5516718 94.6508246,23.525 C94.6508246,22.9883307 94.7791567,22.5566683 95.0358246,22.23 C95.2924926,21.9033317 95.6658222,21.74 96.1558246,21.74 C97.369164,21.74 98.3083213,22.2008287 98.9733246,23.1225 C99.638328,24.0441713 99.9708246,25.1466603 99.9708246,26.43 C99.9708246,27.1533369 99.8541591,27.8416634 99.6208246,28.495 C99.8541591,28.5650003 100.12249,28.6 100.425825,28.6 C101.709164,28.6 102.852486,27.7833415 103.855825,26.15 L104.135825,26.5 C103.085819,28.2966756 101.767499,29.195 100.180825,29.195 C99.994157,29.195 99.7141598,29.1716669 99.3408246,29.125 C98.5241539,30.6416743 97.2874996,31.4 95.6308246,31.4 C93.7174817,31.4 91.9674992,30.2566781 90.3808246,27.97 C89.6108208,26.826661 88.9866604,25.25751 88.5083246,23.2625 C88.0299889,21.26749 87.7908246,19.0450122 87.7908246,16.595 C87.7908246,14.1449877 87.9949893,11.9283432 88.4033246,9.945 C88.81166,7.96165675 89.4241539,6.32833975 90.2408246,5.045 C91.0574954,3.76166025 91.9908194,3.12 93.0408246,3.12 C94.720833,3.12 95.5608246,4.7299839 95.5608246,7.95 Z M112.605825,6.305 C112.605825,3.48165255 111.602501,2.07 109.595825,2.07 C107.822482,2.07 106.42833,3.2599881 105.413325,5.64 C104.39832,8.0200119 103.890825,11.0358151 103.890825,14.6875 C103.890825,18.3391849 104.544151,21.5766525 105.850825,24.4 C107.484166,22.2533226 109.018317,19.3308518 110.453325,15.6325 C111.888332,11.9341482 112.605825,8.8250126 112.605825,6.305 Z M112.220825,29.405 C113.247496,29.405 114.285819,29.1133363 115.335825,28.53 C116.38583,27.9466637 117.237488,27.1533383 117.890825,26.15 L118.135825,26.57 C117.249154,28.1100077 116.018333,29.3291622 114.443325,30.2275 C112.868317,31.1258378 111.334165,31.575 109.840825,31.575 L109.735825,31.575 C107.939149,31.575 106.399164,30.8866735 105.115825,29.51 C102.642479,26.8966536 101.405825,22.8833604 101.405825,17.47 C101.405825,14.6466525 101.773321,11.9866792 102.508325,9.49 C103.243328,6.99332085 104.40415,4.89334185 105.990825,3.19 C107.577499,1.48665815 109.432481,0.635 111.555825,0.635 C114.005837,0.635 115.230825,2.1283184 115.230825,5.115 C115.230825,7.75167985 114.338334,11.0066473 112.553325,14.88 C110.768316,18.7533527 108.63917,22.1483188 106.165825,25.065 C107.682499,27.9583478 109.700812,29.405 112.220825,29.405 Z M124.820825,22.23 C124.820825,22.019999 124.925824,21.8800003 125.135825,21.81 C126.535832,21.2499972 127.323324,20.97 127.498325,20.97 C127.673326,20.97 127.760825,21.0749989 127.760825,21.285 C127.59749,22.1950045 127.515825,23.1049954 127.515825,24.015 C127.515825,25.7650087 127.819155,27.170828 128.425825,28.2325 C129.032494,29.294172 129.837486,29.825 130.840825,29.825 C132.380832,29.825 134.037482,28.6000122 135.810825,26.15 L136.055825,26.57 C135.029153,28.180008 133.926664,29.3991625 132.748325,30.2275 C131.569985,31.0558375 130.432497,31.47 129.335825,31.47 C127.655816,31.47 126.384162,30.5950087 125.520825,28.845 C124.61082,30.1983401 123.438332,30.875 122.003325,30.875 C120.568317,30.875 119.395829,30.2508396 118.485825,29.0025 C117.57582,27.7541604 117.120825,26.2783418 117.120825,24.575 C117.120825,22.918325 117.482488,21.856669 118.205825,21.39 C118.765827,21.0633317 119.430821,20.9 120.200825,20.9 C120.410826,20.9 120.515825,21.3199958 120.515825,22.16 C120.515825,23.0000042 120.352493,23.9099951 120.025825,24.89 C120.352493,26.5466749 121.099152,27.71333 122.265825,28.39 C122.732494,28.6700014 123.228322,28.81 123.753325,28.81 C124.278327,28.81 124.774156,28.5883355 125.240825,28.145 C124.867489,27.0716613 124.680825,25.9983387 124.680825,24.925 C124.680825,23.8516613 124.727491,22.953337 124.820825,22.23 Z M139.450825,19.64 L139.485825,19.185 C139.485825,18.9049986 139.170828,18.765 138.540825,18.765 C137.910821,18.765 137.344994,18.9516648 136.843325,19.325 C136.341655,19.6983352 136.090825,20.1999968 136.090825,20.83 C136.090825,21.9500056 136.895817,22.51 138.505825,22.51 C138.762493,22.51 139.02499,22.4691671 139.293325,22.3875 C139.561659,22.3058329 139.835823,22.265 140.115825,22.265 C140.395826,22.265 140.535825,22.3583324 140.535825,22.545 C140.535825,22.5683334 140.442492,22.6208329 140.255825,22.7025 C140.069157,22.7841671 139.841659,22.9066659 139.573325,23.07 C139.30499,23.2333341 139.030826,23.443332 138.750825,23.7 C138.097488,24.3066697 137.770825,25.1349948 137.770825,26.185 C137.770825,27.2350053 138.085821,28.0341639 138.715825,28.5825 C139.345828,29.1308361 140.162486,29.405 141.165825,29.405 C142.169163,29.405 143.195819,29.1133363 144.245825,28.53 C145.29583,27.9466637 146.147488,27.1533383 146.800825,26.15 L147.045825,26.57 C146.159154,28.1100077 144.928333,29.3291622 143.353325,30.2275 C141.778317,31.1258378 140.343331,31.575 139.048325,31.575 C137.753318,31.575 136.761661,31.3066693 136.073325,30.77 C135.384988,30.2333306 135.040825,29.5391709 135.040825,28.6875 C135.040825,27.8358291 135.250823,27.0483369 135.670825,26.325 C136.090827,25.601663 136.458323,25.0825016 136.773325,24.7675 C137.088326,24.4524984 137.321657,24.230834 137.473325,24.1025 C137.624992,23.974166 137.700825,23.8808336 137.700825,23.8225 C137.700825,23.7641664 137.689158,23.735 137.665825,23.735 C136.919154,24.0150014 136.195828,24.155 135.495825,24.155 C134.259152,24.155 133.640825,23.6533384 133.640825,22.65 C133.640825,21.2966599 134.410817,20.1300049 135.950825,19.15 C137.490832,18.1699951 138.838319,17.68 139.993325,17.68 C141.14833,17.68 141.725825,17.9599972 141.725825,18.52 C141.725825,18.8700018 141.53916,19.2433313 141.165825,19.64 C140.792489,20.0366687 140.454159,20.235 140.150825,20.235 C139.684156,20.235 139.450825,20.0366687 139.450825,19.64 Z M169.550825,20.62 C169.294157,20.62 169.078326,20.9524967 168.903325,21.6175 C168.728324,22.2825033 168.640825,23.1399947 168.640825,24.19 C168.640825,25.2400052 168.780823,26.1383296 169.060825,26.885 C169.714161,24.7383226 170.040825,23.1575051 170.040825,22.1425 C170.040825,21.1274949 169.877493,20.62 169.550825,20.62 Z M168.115825,29.16 C168.325826,28.9033321 168.54749,28.4250035 168.780825,27.725 C167.987487,26.324993 167.590825,24.6566763 167.590825,22.72 C167.590825,21.5766609 167.777489,20.6375037 168.150825,19.9025 C168.52416,19.1674963 169.084154,18.8 169.830825,18.8 C170.437494,18.8 170.740825,19.4591601 170.740825,20.7775 C170.740825,22.0958399 170.25083,24.2949846 169.270825,27.375 C169.667493,28.1916708 170.215821,28.6 170.915825,28.6 C172.199164,28.6 173.342486,27.7833415 174.345825,26.15 L174.625825,26.5 C173.575819,28.2966756 172.257499,29.195 170.670825,29.195 C170.110822,29.195 169.562494,28.833337 169.025825,28.11 L168.395825,29.965 C168.395825,30.175001 168.308326,30.3033331 168.133325,30.35 C167.958324,30.3966669 167.602494,30.5541653 167.065825,30.8225 C166.529155,31.0908347 166.202492,31.225 166.085825,31.225 C165.899157,31.225 165.759158,31.0850014 165.665825,30.805 C164.545819,26.8849804 163.577495,24.2366735 162.760825,22.86 C162.550824,22.5333317 162.404992,22.305834 162.323325,22.1775 C162.241658,22.049166 162.206658,21.9150007 162.218325,21.775 C162.229991,21.6349993 162.486655,21.4191681 162.988325,21.1275 C163.489994,20.8358319 163.904156,20.69 164.230825,20.69 C164.697494,20.7366669 165.158322,21.2208287 165.613325,22.1425 C166.068327,23.0641713 166.564155,24.4058245 167.100825,26.1675 C167.637494,27.9291755 167.929158,28.8683328 167.975825,28.985 C168.022492,29.1016672 168.069158,29.16 168.115825,29.16 Z M177.985825,19.64 L178.020825,19.185 C178.020825,18.9049986 177.705828,18.765 177.075825,18.765 C176.445821,18.765 175.879994,18.9516648 175.378325,19.325 C174.876655,19.6983352 174.625825,20.1999968 174.625825,20.83 C174.625825,21.9500056 175.430817,22.51 177.040825,22.51 C177.297493,22.51 177.55999,22.4691671 177.828325,22.3875 C178.096659,22.3058329 178.370823,22.265 178.650825,22.265 C178.930826,22.265 179.070825,22.3583324 179.070825,22.545 C179.070825,22.5683334 178.977492,22.6208329 178.790825,22.7025 C178.604157,22.7841671 178.376659,22.9066659 178.108325,23.07 C177.83999,23.2333341 177.565826,23.443332 177.285825,23.7 C176.632488,24.3066697 176.305825,25.1349948 176.305825,26.185 C176.305825,27.2350053 176.620821,28.0341639 177.250825,28.5825 C177.880828,29.1308361 178.697486,29.405 179.700825,29.405 C180.704163,29.405 181.730819,29.1133363 182.780825,28.53 C183.83083,27.9466637 184.682488,27.1533383 185.335825,26.15 L185.580825,26.57 C184.694154,28.1100077 183.463333,29.3291622 181.888325,30.2275 C180.313317,31.1258378 178.878331,31.575 177.583325,31.575 C176.288318,31.575 175.296661,31.3066693 174.608325,30.77 C173.919988,30.2333306 173.575825,29.5391709 173.575825,28.6875 C173.575825,27.8358291 173.785823,27.0483369 174.205825,26.325 C174.625827,25.601663 174.993323,25.0825016 175.308325,24.7675 C175.623326,24.4524984 175.856657,24.230834 176.008325,24.1025 C176.159992,23.974166 176.235825,23.8808336 176.235825,23.8225 C176.235825,23.7641664 176.224158,23.735 176.200825,23.735 C175.454154,24.0150014 174.730828,24.155 174.030825,24.155 C172.794152,24.155 172.175825,23.6533384 172.175825,22.65 C172.175825,21.2966599 172.945817,20.1300049 174.485825,19.15 C176.025832,18.1699951 177.373319,17.68 178.528325,17.68 C179.68333,17.68 180.260825,17.9599972 180.260825,18.52 C180.260825,18.8700018 180.07416,19.2433313 179.700825,19.64 C179.327489,20.0366687 178.989159,20.235 178.685825,20.235 C178.219156,20.235 177.985825,20.0366687 177.985825,19.64 Z M194.085825,6.305 C194.085825,3.48165255 193.082501,2.07 191.075825,2.07 C189.302482,2.07 187.90833,3.2599881 186.893325,5.64 C185.87832,8.0200119 185.370825,11.0358151 185.370825,14.6875 C185.370825,18.3391849 186.024151,21.5766525 187.330825,24.4 C188.964166,22.2533226 190.498317,19.3308518 191.933325,15.6325 C193.368332,11.9341482 194.085825,8.8250126 194.085825,6.305 Z M193.700825,29.405 C194.727496,29.405 195.765819,29.1133363 196.815825,28.53 C197.86583,27.9466637 198.717488,27.1533383 199.370825,26.15 L199.615825,26.57 C198.729154,28.1100077 197.498333,29.3291622 195.923325,30.2275 C194.348317,31.1258378 192.814165,31.575 191.320825,31.575 L191.215825,31.575 C189.419149,31.575 187.879164,30.8866735 186.595825,29.51 C184.122479,26.8966536 182.885825,22.8833604 182.885825,17.47 C182.885825,14.6466525 183.253321,11.9866792 183.988325,9.49 C184.723328,6.99332085 185.88415,4.89334185 187.470825,3.19 C189.057499,1.48665815 190.912481,0.635 193.035825,0.635 C195.485837,0.635 196.710825,2.1283184 196.710825,5.115 C196.710825,7.75167985 195.818334,11.0066473 194.033325,14.88 C192.248316,18.7533527 190.11917,22.1483188 187.645825,25.065 C189.162499,27.9583478 191.180812,29.405 193.700825,29.405 Z M204.620825,20.62 C204.364157,20.62 204.148326,20.9524967 203.973325,21.6175 C203.798324,22.2825033 203.710825,23.1399947 203.710825,24.19 C203.710825,25.2400052 203.850823,26.1383296 204.130825,26.885 C204.784161,24.7383226 205.110825,23.1575051 205.110825,22.1425 C205.110825,21.1274949 204.947493,20.62 204.620825,20.62 Z M203.185825,29.16 C203.395826,28.9033321 203.61749,28.4250035 203.850825,27.725 C203.057487,26.324993 202.660825,24.6566763 202.660825,22.72 C202.660825,21.5766609 202.847489,20.6375037 203.220825,19.9025 C203.59416,19.1674963 204.154154,18.8 204.900825,18.8 C205.507494,18.8 205.810825,19.4591601 205.810825,20.7775 C205.810825,22.0958399 205.32083,24.2949846 204.340825,27.375 C204.737493,28.1916708 205.285821,28.6 205.985825,28.6 C207.269164,28.6 208.412486,27.7833415 209.415825,26.15 L209.695825,26.5 C208.645819,28.2966756 207.327499,29.195 205.740825,29.195 C205.180822,29.195 204.632494,28.833337 204.095825,28.11 L203.465825,29.965 C203.465825,30.175001 203.378326,30.3033331 203.203325,30.35 C203.028324,30.3966669 202.672494,30.5541653 202.135825,30.8225 C201.599155,31.0908347 201.272492,31.225 201.155825,31.225 C200.969157,31.225 200.829158,31.0850014 200.735825,30.805 C199.615819,26.8849804 198.647495,24.2366735 197.830825,22.86 C197.620824,22.5333317 197.474992,22.305834 197.393325,22.1775 C197.311658,22.049166 197.276658,21.9150007 197.288325,21.775 C197.299991,21.6349993 197.556655,21.4191681 198.058325,21.1275 C198.559994,20.8358319 198.974156,20.69 199.300825,20.69 C199.767494,20.7366669 200.228322,21.2208287 200.683325,22.1425 C201.138327,23.0641713 201.634155,24.4058245 202.170825,26.1675 C202.707494,27.9291755 202.999158,28.8683328 203.045825,28.985 C203.092492,29.1016672 203.139158,29.16 203.185825,29.16 Z M213.055825,19.64 L213.090825,19.185 C213.090825,18.9049986 212.775828,18.765 212.145825,18.765 C211.515821,18.765 210.949994,18.9516648 210.448325,19.325 C209.946655,19.6983352 209.695825,20.1999968 209.695825,20.83 C209.695825,21.9500056 210.500817,22.51 212.110825,22.51 C212.367493,22.51 212.62999,22.4691671 212.898325,22.3875 C213.166659,22.3058329 213.440823,22.265 213.720825,22.265 C214.000826,22.265 214.140825,22.3583324 214.140825,22.545 C214.140825,22.5683334 214.047492,22.6208329 213.860825,22.7025 C213.674157,22.7841671 213.446659,22.9066659 213.178325,23.07 C212.90999,23.2333341 212.635826,23.443332 212.355825,23.7 C211.702488,24.3066697 211.375825,25.1349948 211.375825,26.185 C211.375825,27.2350053 211.690821,28.0341639 212.320825,28.5825 C212.950828,29.1308361 213.767486,29.405 214.770825,29.405 C215.774163,29.405 216.800819,29.1133363 217.850825,28.53 C218.90083,27.9466637 219.752488,27.1533383 220.405825,26.15 L220.650825,26.57 C219.764154,28.1100077 218.533333,29.3291622 216.958325,30.2275 C215.383317,31.1258378 213.948331,31.575 212.653325,31.575 C211.358318,31.575 210.366661,31.3066693 209.678325,30.77 C208.989988,30.2333306 208.645825,29.5391709 208.645825,28.6875 C208.645825,27.8358291 208.855823,27.0483369 209.275825,26.325 C209.695827,25.601663 210.063323,25.0825016 210.378325,24.7675 C210.693326,24.4524984 210.926657,24.230834 211.078325,24.1025 C211.229992,23.974166 211.305825,23.8808336 211.305825,23.8225 C211.305825,23.7641664 211.294158,23.735 211.270825,23.735 C210.524154,24.0150014 209.800828,24.155 209.100825,24.155 C207.864152,24.155 207.245825,23.6533384 207.245825,22.65 C207.245825,21.2966599 208.015817,20.1300049 209.555825,19.15 C211.095832,18.1699951 212.443319,17.68 213.598325,17.68 C214.75333,17.68 215.330825,17.9599972 215.330825,18.52 C215.330825,18.8700018 215.14416,19.2433313 214.770825,19.64 C214.397489,20.0366687 214.059159,20.235 213.755825,20.235 C213.289156,20.235 213.055825,20.0366687 213.055825,19.64 Z M221.805825,13.13 C222.17916,24.0967215 223.87081,29.58 226.880825,29.58 C228.164164,29.58 229.704149,28.4366781 231.500825,26.15 L231.745825,26.57 C229.55248,29.836683 227.458335,31.47 225.463325,31.47 C223.468315,31.47 221.852497,29.9475152 220.615825,26.9025 C219.379152,23.8574848 218.725825,19.8033586 218.655825,14.74 C215.762477,16.2566742 214.222492,17.015 214.035825,17.015 C213.73249,17.015 213.580825,16.8516683 213.580825,16.525 C213.580825,16.1983317 213.744156,15.9416676 214.070825,15.755 L218.655825,13.305 C218.702492,11.5316578 218.784157,9.8516746 218.900825,8.265 C218.900825,8.05499895 219.005824,7.91500035 219.215825,7.845 C220.615832,7.2849972 221.403324,7.005 221.578325,7.005 C221.753326,7.005 221.840825,7.10999895 221.840825,7.32 C221.794158,8.4866725 221.770825,9.54832855 221.770825,10.505 L221.770825,11.625 L223.590825,10.645 C228.514183,8.00832015 231.039991,6.69 231.168325,6.69 C231.296659,6.69 231.395824,6.72499965 231.465825,6.795 C231.979161,7.3083359 232.235825,7.59999965 232.235825,7.67 C232.235825,7.74000035 232.165825,7.82749947 232.025825,7.9325 C231.885824,8.03750052 231.366662,8.31749772 230.468325,8.7725 C229.569987,9.22750227 228.228334,9.8983289 226.443325,10.785 C224.658316,11.6716711 223.112498,12.4533299 221.805825,13.13 Z" id="path-2"></path>
    </defs>
    <g id="Logos" stroke="none" stroke-width="1" fill="none" fill-rule="evenodd">
        <g id="Color-Stamp---White-with-blue" transform="translate(-8.000000, -22.000000)">
            <g id="White-Logo" transform="translate(10.000000, 24.000000)">
                <ellipse id="Oval" cx="159.594471" cy="166.204175" rx="159.405529" ry="165.795825"></ellipse>
                <g id="Circle" stroke="#F7F0F0">
                    <path d="M0.188942373,159.923883 L0.188942373,159.923883 C0.18894262,159.918706 0.188942373,159.913528 0.188942373,159.90835 C0.188942373,71.8189329 71.5893193,0.408350483 159.666148,0.408350483 C247.742976,0.408350483 319.143353,71.8189329 319.143353,159.90835 C319.143353,159.913528 319.143353,159.918706 319.143353,159.923883" id="Path" stroke-width="4"></path>
                    <path d="M0.188942373,332.464791 L0.188942373,332.464791 C0.18894262,332.459613 0.188942373,332.454436 0.188942373,332.449258 C0.188942373,244.35984 71.5893193,172.949258 159.666148,172.949258 C247.742976,172.949258 319.143353,244.35984 319.143353,332.449258 C319.143353,332.454436 319.143353,332.459613 319.143353,332.464791" id="Path" stroke-width="4" transform="translate(159.666148, 252.707024) scale(1, -1) translate(-159.666148, -252.707024) "></path>
                    <path d="M0.188942373,166.5 L68.5,166.5" id="Line-8" stroke-width="3" stroke-linecap="round"></path>
                    <path d="M0.188942373,174.5 L153.5,174.5" id="Line-8" stroke-width="3" stroke-linecap="round"></path>
                    <path d="M167.5,174.5 L318.959742,174.449258" id="Line-8" stroke-width="3" stroke-linecap="round"></path>
                    <path d="M111.5,166.5 L153.5,166.5" id="Line-8" stroke-width="3" stroke-linecap="round"></path>
                    <path d="M167.5,166.5 L208.76794,166.5" id="Line-8" stroke-width="3" stroke-linecap="round"></path>
                    <path d="M231.651519,166.5 L319.143353,166.5" id="Line-8" stroke-width="3" stroke-linecap="round"></path>
                    <path d="M0.188942373,158.550742 L59.5,158.5" id="Line-8" stroke-width="3" stroke-linecap="round"></path>
                    <path d="M120.5,158.550742 L153.5,158.5" id="Line-8" stroke-width="3" stroke-linecap="round"></path>
                    <path d="M167.5,158.550742 L198.45286,158.550742" id="Line-8" stroke-width="3" stroke-linecap="round"></path>
                    <path d="M242.074342,158.550742 L319.143353,158.550742" id="Line-8" stroke-width="3" stroke-linecap="round"></path>
                </g>
                <g id="Text" transform="translate(0.000000, 202.000000)" fill="#F7F0F0" fill-rule="nonzero">
                    <g id="leather">
                        <use xlink:href="#path-1"></use>
                        <use xlink:href="#path-1"></use>
                    </g>
                    <g id="bluevelvet">
                        <use xlink:href="#path-2"></use>
                        <use xlink:href="#path-2"></use>
                    </g>
                </g>
                <g id="L" transform="translate(158.666148, 37.200849)" stroke="#F7F0F0" stroke-linecap="square" stroke-width="3">
                    <path d="M1.91651871,0.498172928 L1.91651871,147.56941" id="Line-2"></path>
                </g>
                <polyline id="Path-2" stroke="#F7F0F0" stroke-width="3" points="223.161489 144.254015 191.281755 62.6198734 213.473427 62.6198734 213.473427 56.861376 182.5 56.861376 220.05862 152 257.5 56.861376 243.709357 56.861376 237.5 71.9259894"></polyline>
                <path d="M91.9636127,103.247894 C106.031344,90.5584961 111.937442,79.9796208 109.681909,71.5112679 C106.693093,60.2898175 96.1952651,52.0312835 74.8682289,52.0312835 C66.6946372,51.8472055 62.4052276,52.4754888 62,53.9161332 L62,108.184254 L67.7759299,108.184254 L67.7759299,52.0312835" id="Path-3" stroke="#F7F0F0" stroke-width="3"></path>
                <path d="M78.6223348,89.0108381 L78.6223348,154.472373 C96.4429154,155.370106 107.635222,150.344357 112.199254,139.395127 C117.723641,126.141982 106.328039,111.940279 102.241901,107.334641" id="Path-4" stroke="#F7F0F0" stroke-width="3"></path>
            </g>
        </g>
    </g>
</svg>